HIERARCHY
ROOT Hips
{
	OFFSET 0.000000 0.000000 0.000000
	CHANNELS 6 Xposition Yposition Zposition Zrotation Yrotation Xrotation 
	JOINT LeftUpLeg_virtual
	{
		OFFSET 0.000000 0.000000 0.000000
		CHANNELS 3 Zrotation Yrotation Xrotation
		JOINT LeftUpLeg
		{
			OFFSET 10.205400 -3.823500 0.155100
			CHANNELS 3 Zrotation Yrotation Xrotation
			JOINT LeftLeg
			{
				OFFSET 0.708757 -12.982077 0.567790
				CHANNELS 3 Zrotation Yrotation Xrotation
				JOINT LeftFoot
				{
					OFFSET -0.708756 -10.717838 -2.184338
					CHANNELS 3 Zrotation Yrotation Xrotation
					JOINT LeftToeBase
					{
						OFFSET 0.108149 -7.191104 7.560241
						CHANNELS 3 Zrotation Yrotation Xrotation
						End Site
						{
							OFFSET 0.000000 0.000000 0.000000
						}
					}
				}
			}
		}
	}
	JOINT RightUpLeg_virtual
	{
		OFFSET 0.000000 0.000000 0.000000
		CHANNELS 3 Zrotation Yrotation Xrotation
		JOINT RightUpLeg
		{
			OFFSET -10.205400 -3.823500 0.005500
			CHANNELS 3 Zrotation Yrotation Xrotation
			JOINT RightLeg
			{
				OFFSET -0.708756 -12.982134 0.610632
				CHANNELS 3 Zrotation Yrotation Xrotation
				JOINT RightFoot
				{
					OFFSET 0.708754 -10.717769 -1.945823
					CHANNELS 3 Zrotation Yrotation Xrotation
					JOINT RightToeBase
					{
						OFFSET -0.108140 -7.191069 7.372968
						CHANNELS 3 Zrotation Yrotation Xrotation
						End Site
						{
							OFFSET 0.000000 0.000000 0.000000
						}
					}
				}
			}
		}
	}
	JOINT Spine_virtual
	{
		OFFSET 0.000000 0.000000 0.000000
		CHANNELS 3 Zrotation Yrotation Xrotation
		JOINT Spine
		{
			OFFSET 0.000000 6.876099 0.125700
			CHANNELS 3 Zrotation Yrotation Xrotation
			JOINT Spine1
			{
				OFFSET 0.000000 8.022060 0.146608
				CHANNELS 3 Zrotation Yrotation Xrotation
				JOINT Spine2
				{
					OFFSET 0.000000 9.168068 0.167552
					CHANNELS 3 Zrotation Yrotation Xrotation
					JOINT Neck_virtual
					{
						OFFSET 0.000000 0.000000 0.000000
						CHANNELS 3 Zrotation Yrotation Xrotation
						JOINT Neck
						{
							OFFSET 0.000000 10.314075 0.188496
							CHANNELS 3 Zrotation Yrotation Xrotation
							JOINT Head
							{
								OFFSET 0.000000 7.643700 -2.377400
								CHANNELS 3 Zrotation Yrotation Xrotation
								End Site
								{
									OFFSET 0.000000 0.000000 0.000000
								}
							}
						}
					}
					JOINT LeftShoulder_virtual
					{
						OFFSET 0.000000 0.000000 0.000000
						CHANNELS 3 Zrotation Yrotation Xrotation
						JOINT LeftShoulder
						{
							OFFSET 4.392200 8.824978 0.174984
							CHANNELS 3 Zrotation Yrotation Xrotation
							JOINT LeftArm
							{
								OFFSET 8.771219 -2.981674 -0.026999
								CHANNELS 3 Zrotation Yrotation Xrotation
								JOINT LeftForeArm
								{
									OFFSET 8.512804 0.000000 -0.000000
									CHANNELS 3 Zrotation Yrotation Xrotation
									JOINT LeftHand
									{
										OFFSET 18.484802 0.000000 -0.000000
										CHANNELS 3 Zrotation Yrotation Xrotation
										End Site
										{
											OFFSET 0.000000 0.000000 0.000000
										}
									}
								}
							}
						}
					}
					JOINT RightShoulder_virtual
					{
						OFFSET 0.000000 0.000000 0.000000
						CHANNELS 3 Zrotation Yrotation Xrotation
						JOINT RightShoulder
						{
							OFFSET -4.392200 8.824993 0.141379
							CHANNELS 3 Zrotation Yrotation Xrotation
							JOINT RightArm
							{
								OFFSET -8.771282 -2.981682 -0.094208
								CHANNELS 3 Zrotation Yrotation Xrotation
								JOINT RightForeArm
								{
									OFFSET -8.494598 0.000000 0.000000
									CHANNELS 3 Zrotation Yrotation Xrotation
									JOINT RightHand
									{
										OFFSET -18.483803 0.000000 0.000001
										CHANNELS 3 Zrotation Yrotation Xrotation
										End Site
										{
											OFFSET 0.000000 0.000000 0.000000
										}
									}
								}
							}
						}
					}
				}
			}
		}
	}
}
MOTION
Frames: 8
Frame Time: 0.033333
-0.070520 35.753487 17.225813 -179.902907 3.501574 -179.880723 -2.758286 -3.856160 11.436116 -16.367051 -2.232889 -18.241815 16.653038 6.473480 18.255873 3.566738 -1.001318 2.465053 0.000000 0.000000 0.000000 1.612145 -1.272457 10.665892 3.385748 1.546801 -16.009987 -6.783385 2.368546 17.834416 3.661581 1.245388 4.080221 0.000000 0.000000 0.000000 1.409257 0.395393 -1.680029 -2.766066 2.435292 -6.435137 -0.089061 -3.862135 3.465797 0.025244 0.004805 0.013399 -0.297422 -2.386346 5.526077 0.571282 1.386486 15.593190 0.000000 0.000000 0.000000 1.207541 -1.682729 2.325655 -7.256933 0.751604 -6.743617 1.519648 9.643439 -37.175391 -3.058411 -43.375547 -0.958854 0.000000 0.000000 0.000000 -2.301885 -0.932350 1.920803 16.989443 -4.693641 -16.081341 10.776737 -9.451671 -43.705557 0.256740 29.654383 0.326692 0.000000 0.000000 0.000000 
-0.075280 35.750694 17.218033 -179.964802 3.472617 -179.783543 -2.841382 -4.013233 11.512448 -16.382697 -2.595092 -18.024483 16.848289 6.370977 18.301246 3.717297 -0.831183 2.182024 0.000000 0.000000 0.000000 1.540740 -1.155712 10.655417 3.308138 1.671244 -15.954432 -6.930847 2.620659 17.898835 3.471123 1.065149 3.854203 0.000000 0.000000 0.000000 1.344773 0.433587 -1.755966 -2.792286 2.466280 -6.470622 -0.116429 -3.832832 3.459492 -0.017941 0.039203 -0.001526 -0.251730 -2.461353 5.576666 0.560803 1.345474 15.578473 0.000000 0.000000 0.000000 1.262680 -1.775829 2.412820 -7.274410 0.681276 -6.796557 1.455752 9.672569 -37.224705 -3.056826 -43.437169 -0.946968 0.000000 0.000000 0.000000 -2.242373 -0.974116 1.905415 17.010564 -4.703298 -15.973367 10.684929 -9.624416 -43.746108 0.253976 29.652047 0.335583 0.000000 0.000000 0.000000 
-0.078828 35.747784 17.207207 -179.888154 3.487068 -179.795031 -2.744605 -4.010912 11.452022 -16.386956 -2.685739 -17.953994 16.874320 6.440058 18.319310 3.746308 -0.829414 2.219623 0.000000 0.000000 0.000000 1.625496 -1.133708 10.614163 3.326362 1.658427 -15.884387 -6.900462 2.632521 17.960206 3.468714 1.074820 3.872626 0.000000 0.000000 0.000000 1.402423 0.425196 -1.793267 -2.737130 2.439588 -6.474580 -0.094723 -3.869520 3.506554 0.006784 0.006356 0.033756 -0.287175 -2.430621 5.532460 0.613677 1.331075 15.614828 0.000000 0.000000 0.000000 1.219524 -1.677935 2.338430 -7.289299 0.723040 -6.839546 1.413666 9.743581 -37.318405 -3.087590 -43.563708 -0.895944 0.000000 0.000000 0.000000 -2.291816 -0.938761 1.925605 17.045307 -4.613751 -16.059841 10.633645 -9.806652 -43.789166 0.277043 29.697731 0.325328 0.000000 0.000000 0.000000 
-0.084272 35.747826 17.200905 -179.901705 3.456627 -179.856858 -2.764614 -4.026194 11.453433 -16.329372 -2.716783 -17.886341 16.779032 6.472922 18.337321 3.836030 -0.903719 2.255460 0.000000 0.000000 0.000000 1.610972 -1.155062 10.597771 3.285923 1.598765 -15.821817 -6.871822 2.600628 18.072612 3.463072 1.124046 3.794743 0.000000 0.000000 0.000000 1.398814 0.413781 -1.765072 -2.742115 2.463378 -6.477576 -0.121843 -3.837568 3.513454 -0.004468 0.020605 0.036450 -0.271847 -2.473454 5.474043 0.696708 1.326701 15.664808 0.000000 0.000000 0.000000 1.201005 -1.717470 2.341734 -7.342243 0.650365 -6.666529 1.311257 9.851108 -37.383579 -2.980898 -43.700711 -0.942260 0.000000 0.000000 0.000000 -2.302101 -0.936243 1.887528 17.061024 -4.549288 -16.011995 10.635006 -10.142392 -43.934990 0.241382 29.891111 0.342917 0.000000 0.000000 0.000000 
-0.087287 35.748230 17.198526 -179.850492 3.436267 -179.810822 -2.730230 -4.056642 11.448459 -16.303518 -2.769042 -17.918045 16.730347 6.453612 18.316016 3.904494 -0.897944 2.287531 0.000000 0.000000 0.000000 1.643480 -1.168418 10.578425 3.263468 1.545178 -15.827869 -6.851781 2.532594 18.069084 3.472013 1.169474 3.856618 0.000000 0.000000 0.000000 1.445433 0.404374 -1.808417 -2.673477 2.481309 -6.517816 -0.209131 -3.798052 3.529112 -0.033794 0.046005 0.042365 -0.276730 -2.489173 5.467376 0.790664 1.314596 15.770681 0.000000 0.000000 0.000000 1.202038 -1.708099 2.371491 -7.334765 0.591348 -6.735961 1.098014 9.950245 -37.413645 -2.927543 -44.008531 -0.913066 0.000000 0.000000 0.000000 -2.294244 -0.964417 1.863830 17.053193 -4.459025 -15.964843 10.675786 -10.483020 -44.090883 0.229166 30.094305 0.363936 0.000000 0.000000 0.000000 
-0.087661 35.747990 17.204288 -179.929777 3.352088 -179.871119 -2.799712 -4.085181 11.509562 -16.329304 -2.857622 -17.937163 16.795633 6.398404 18.296523 3.939709 -0.854650 2.320474 0.000000 0.000000 0.000000 1.585454 -1.213660 10.612573 3.252920 1.496259 -15.838490 -6.831550 2.487163 18.101302 3.487942 1.219514 3.794648 0.000000 0.000000 0.000000 1.381213 0.381926 -1.771883 -2.734187 2.450472 -6.538828 -0.174391 -3.795797 3.542803 -0.000398 0.035644 0.035625 -0.314078 -2.446685 5.429372 0.869912 1.323778 15.903510 0.000000 0.000000 0.000000 1.132844 -1.697497 2.329518 -7.443006 0.532793 -6.645012 1.040085 10.183290 -37.380864 -2.965011 -44.290649 -0.818670 0.000000 0.000000 0.000000 -2.354763 -0.953901 1.845576 17.009736 -4.310450 -15.964213 10.882746 -10.755167 -44.186946 0.200874 30.366932 0.367824 0.000000 0.000000 0.000000 
-0.087654 35.747253 17.209171 -179.891159 3.295661 -179.782463 -2.757219 -4.082691 11.502343 -16.367155 -2.921054 -18.031718 16.894586 6.336234 18.295189 3.943408 -0.749262 2.358850 0.000000 0.000000 0.000000 1.624120 -1.181992 10.606359 3.268733 1.449495 -15.871116 -6.818763 2.383821 18.059748 3.516863 1.257802 3.861543 0.000000 0.000000 0.000000 1.400019 0.247535 -1.843231 -2.666826 2.431759 -6.588655 -0.179160 -3.770427 3.537110 0.007856 0.058859 -0.014683 -0.374180 -2.389784 5.502854 0.950937 1.320476 16.073136 0.000000 0.000000 0.000000 1.091733 -1.613369 2.376474 -7.463070 0.540496 -6.619376 0.850734 10.392973 -37.397396 -2.967459 -44.651634 -0.768711 0.000000 0.000000 0.000000 -2.387136 -0.894430 1.915127 16.951421 -4.149291 -16.057737 11.121656 -10.903094 -44.305924 0.202517 30.566623 0.435193 0.000000 0.000000 0.000000 
-0.091683 35.750278 17.221987 -179.948096 3.173164 -179.791425 -2.854512 -4.117650 11.506398 -16.329451 -2.961541 -18.089425 16.836491 6.269205 18.317963 3.968751 -0.822889 2.400958 0.000000 0.000000 0.000000 1.556285 -1.191222 10.607646 3.246417 1.334926 -15.856854 -6.802248 2.270475 18.041646 3.537758 1.316465 3.874426 0.000000 0.000000 0.000000 1.325986 0.508146 -1.817188 -2.646121 2.269086 -6.654080 -0.251782 -3.868436 3.542013 -0.019979 -0.038942 -0.001477 -0.373504 -2.412131 5.483065 1.061042 1.342259 16.262885 0.000000 0.000000 0.000000 1.047639 -1.641126 2.348511 -7.490705 0.534466 -6.390732 0.563469 10.687060 -37.684029 -2.975361 -45.010298 -0.751047 0.000000 0.000000 0.000000 -2.392239 -0.808252 1.856053 16.854547 -3.984381 -15.905834 11.406659 -11.030312 -44.634023 0.075744 30.697254 0.406963 0.000000 0.000000 0.000000 
